HIERARCHY
ROOT WRIST
{
	OFFSET 0.000000 0.000000 0.000000
	CHANNELS 6 Xposition Yposition Zposition Yrotation Xrotation Zrotation
	JOINT THUMB_CMC_FE
	{
		OFFSET -0.225143 0.117753 -0.062308
		CHANNELS 3 Yrotation Xrotation Zrotation
		JOINT THUMB_CMC_AA
		{
			OFFSET -0.212856 -0.150507 0.098851
			CHANNELS 3 Yrotation Xrotation Zrotation
			JOINT THUMB_MCP_FE
			{
				OFFSET 0.322503 -0.167445 -0.031436
				CHANNELS 3 Yrotation Xrotation Zrotation
				JOINT THUMB_IP_FE
				{
					OFFSET -0.295233 -0.236404 0.025845
					CHANNELS 3 Yrotation Xrotation Zrotation
					End Site
					{
						OFFSET 0.000000 0.000000 0.000000
					}
				}
			}
		}
	}
	JOINT INDEX_MCP
	{
		OFFSET -1.076913 0.264198 -0.014768
		CHANNELS 3 Yrotation Xrotation Zrotation
		JOINT INDEX_PIP_FE
		{
			OFFSET -0.425053 0.013289 0.013619
			CHANNELS 3 Yrotation Xrotation Zrotation
			JOINT INDEX_DIP_FE
			{
				OFFSET -0.271505 -0.024898 0.000550
				CHANNELS 3 Yrotation Xrotation Zrotation
				End Site
				{
					OFFSET 0.000000 0.000000 0.000000
				}
			}
		}
	}
	JOINT MIDDLE_MCP
	{
		OFFSET -1.072991 0.019362 0.038780
		CHANNELS 3 Yrotation Xrotation Zrotation
		JOINT MIDDLE_PIP_FE
		{
			OFFSET -0.480704 0.002618 0.028696
			CHANNELS 3 Yrotation Xrotation Zrotation
			JOINT MIDDLE_DIP_FE
			{
				OFFSET -0.307486 -0.031129 -0.000643
				CHANNELS 3 Yrotation Xrotation Zrotation
				End Site
				{
					OFFSET 0.000000 0.000000 0.000000
				}
			}
		}
	}
	JOINT RING_MCP
	{
		OFFSET -0.994992 -0.195930 -0.005938
		CHANNELS 3 Yrotation Xrotation Zrotation
		JOINT RING_PIP_FE
		{
			OFFSET -0.436995 0.003792 0.019994
			CHANNELS 3 Yrotation Xrotation Zrotation
			JOINT RING_DIP_FE
			{
				OFFSET -0.295558 -0.038341 -0.006642
				CHANNELS 3 Yrotation Xrotation Zrotation
				End Site
				{
					OFFSET 0.000000 0.000000 0.000000
				}
			}
		}
	}
	JOINT PINKY_MCP
	{
		OFFSET -0.873858 -0.393246 -0.086282
		CHANNELS 3 Yrotation Xrotation Zrotation
		JOINT PINKY_PIP_FE
		{
			OFFSET -0.343972 -0.016492 0.013445
			CHANNELS 3 Yrotation Xrotation Zrotation
			JOINT PINKY_DIP_FE
			{
				OFFSET -0.224713 -0.036309 -0.010265
				CHANNELS 3 Yrotation Xrotation Zrotation
				End Site
				{
					OFFSET 0.000000 0.000000 0.000000
				}
			}
		}
	}
}
MOTION
Frames: 12
Frame Time: 0.008333334
0.032314 3.345127 4.913167 -85.224580 -25.453860 -12.022710 -61.461180 4.834468 -52.935330 -119.352900 -30.976930 1.639315 112.864000 -65.843230 37.615680 -4.562073 -8.459839 15.699990 166.213100 3.299567 165.221200 41.978070 -86.125700 -20.198880 2.052634 1.704993 17.930440 161.917400 -2.482483 160.175100 39.240470 -88.411320 -17.073060 6.002524 4.395445 -5.204803 165.382500 -8.918640 161.470400 31.479510 -85.617830 1.326219 -0.199310 0.562930 3.157066 162.317100 -18.087800 167.558100 48.977550 -83.530610 -23.317810 -5.539795 0.809183 43.596060 
0.039278 3.345982 4.939920 -85.175380 -24.812130 -11.854250 -61.461180 4.834465 -52.959530 -119.352900 -30.976900 1.723705 112.864000 -65.843260 37.601310 -4.562103 -8.459839 16.133770 166.224900 3.299771 165.286100 41.978040 -86.125550 -20.202420 2.052633 1.705011 18.322320 162.006300 -2.474518 160.141900 39.240750 -88.411070 -17.059840 6.002514 4.395447 -5.204803 165.796100 -8.831024 161.341900 31.479540 -85.617680 1.652972 -0.199310 0.562909 3.467608 162.511400 -18.043850 167.573600 48.977600 -83.530610 -23.282870 -5.539795 0.809176 44.085920 
0.045481 3.344362 4.963843 -84.989960 -24.446380 -11.908200 -61.461180 4.834465 -53.197600 -119.352900 -30.976930 1.735322 112.864000 -65.843260 37.770280 -4.562103 -8.459839 16.551650 166.374900 3.302477 165.185700 41.978150 -86.125610 -19.686400 2.052613 1.704998 18.379610 162.206000 -2.456635 160.066900 39.240950 -88.411320 -16.413330 6.002512 4.395458 -5.204803 165.875100 -8.814209 161.357800 31.479680 -85.617740 2.146070 -0.199310 0.562917 2.963033 162.770900 -17.984830 167.402200 48.977510 -83.530640 -22.603610 -5.539825 0.809172 43.982530 
0.052949 3.344613 4.987172 -84.656560 -24.029600 -11.876160 -61.461180 4.834472 -53.650120 -119.352900 -30.976930 1.544012 112.863900 -65.843260 38.142630 -4.562103 -8.459839 16.460660 166.066100 3.296887 165.330900 41.978200 -86.125670 -19.662200 2.052635 1.705012 18.059650 162.097900 -2.466309 160.103100 39.240830 -88.411560 -15.984990 6.002508 4.395443 -5.204803 165.335700 -8.928528 161.505600 31.479560 -85.617740 1.568608 -0.199310 0.562931 2.273103 161.958900 -18.168210 167.702100 48.977570 -83.530610 -23.633270 -5.539795 0.809178 43.398410 
0.057982 3.345733 5.008948 -84.536800 -23.580540 -11.837310 -61.461180 4.834465 -53.658260 -119.352900 -30.976930 1.601508 112.863900 -65.843230 38.064180 -4.562073 -8.459839 17.001640 166.072000 3.296998 165.279500 41.978210 -86.125670 -19.780880 2.052632 1.705001 18.772120 162.106700 -2.465546 160.139200 39.240800 -88.411440 -16.287660 6.002522 4.395459 -5.204803 165.339200 -8.927795 161.413500 31.479680 -85.617830 1.151400 -0.199310 0.562919 2.268802 162.521700 -18.041530 167.600200 48.977450 -83.530610 -22.787510 -5.539795 0.809161 43.694460 
0.063303 3.346948 5.028792 -84.315550 -23.183200 -11.862120 -61.461180 4.834468 -53.755890 -119.352900 -30.976930 1.574693 112.864000 -65.843200 38.113880 -4.562103 -8.459839 17.423650 165.942700 3.294631 165.143900 41.978120 -86.125700 -19.683960 2.052628 1.704993 18.732030 162.098400 -2.466278 159.924200 39.240800 -88.411320 -16.310210 6.002524 4.395455 -5.204803 165.653400 -8.861298 161.255100 31.479570 -85.617800 1.402152 -0.199310 0.562924 2.988434 162.483700 -18.050110 167.460400 48.977550 -83.530640 -23.100800 -5.539795 0.809164 43.607790 
0.070309 3.347201 5.047072 -83.893520 -22.936920 -11.942260 -61.461180 4.834463 -53.968410 -119.352900 -30.976930 1.415909 112.863900 -65.843260 38.068570 -4.562073 -8.459839 17.846870 165.677100 3.289729 165.271400 41.978060 -86.125610 -19.501400 2.052625 1.705003 19.110090 161.693000 -2.502563 160.005700 39.240670 -88.411440 -17.342070 6.002521 4.395465 -5.204803 165.533800 -8.886627 161.282100 31.479490 -85.617830 1.701363 -0.199310 0.562924 2.857975 162.577600 -18.028840 167.379000 48.977490 -83.530670 -22.442660 -5.539795 0.809188 43.488020 
0.072840 3.348868 5.064092 -83.744020 -22.631840 -12.032590 -61.461180 4.834463 -54.008360 -119.352900 -30.976960 1.340947 112.864000 -65.843230 38.219280 -4.562073 -8.459839 17.728240 165.560200 3.287535 165.098800 41.978310 -86.125520 -19.578890 2.052621 1.705011 19.356780 161.675400 -2.504120 159.838900 39.240700 -88.411440 -17.664280 6.002510 4.395446 -5.204803 165.795900 -8.831055 161.169200 31.479550 -85.617800 1.851626 -0.199310 0.562916 2.770355 162.521300 -18.041600 167.324800 48.977600 -83.530610 -22.846800 -5.539795 0.809183 43.582100 
0.076422 3.351784 5.079871 -83.571410 -22.357420 -12.076570 -61.461180 4.834466 -53.948330 -119.352900 -30.976930 1.387040 112.863900 -65.843200 38.306940 -4.562103 -8.459869 18.282500 165.502400 3.286448 165.081800 41.978030 -86.125550 -19.582210 2.052626 1.705002 19.419690 161.818600 -2.491333 159.866500 39.240410 -88.411440 -17.509460 6.002512 4.395437 -5.204803 165.702800 -8.850830 161.114800 31.479430 -85.617800 1.649627 -0.199310 0.562929 2.512140 162.531800 -18.039250 167.244900 48.977410 -83.530580 -23.022460 -5.539795 0.809172 43.383280 
0.078370 3.353324 5.094951 -83.329710 -22.175230 -12.195500 -61.461180 4.834475 -54.066960 -119.352900 -30.976900 1.347364 112.863900 -65.843200 38.654000 -4.562073 -8.459869 17.971290 165.320400 3.283008 165.123700 41.978120 -86.125550 -19.523800 2.052638 1.705011 19.437920 162.080600 -2.467865 160.031400 39.240390 -88.411440 -16.669650 6.002520 4.395439 -5.204803 165.816300 -8.826721 161.143200 31.479510 -85.617800 2.081893 -0.199310 0.562926 2.622567 162.461400 -18.055180 167.291200 48.977620 -83.530610 -22.884580 -5.539825 0.809163 43.552540 
0.079102 3.356892 5.108705 -83.230260 -21.786770 -12.299260 -61.461180 4.834460 -53.811770 -119.352900 -30.976930 1.437806 112.864000 -65.843230 38.540260 -4.562073 -8.459869 18.197200 165.273400 3.282116 164.952500 41.978210 -86.125550 -19.719150 2.052616 1.704990 19.191790 161.840800 -2.489349 159.871900 39.240760 -88.411190 -17.140080 6.002524 4.395446 -5.204803 165.563400 -8.880371 161.176900 31.479630 -85.617800 1.186648 -0.199310 0.562918 2.960835 162.691800 -18.002870 167.090400 48.977500 -83.530580 -22.657350 -5.539795 0.809174 43.364600 
0.079381 3.358214 5.120271 -82.962490 -21.652400 -12.513520 -61.461180 4.834472 -54.046810 -119.352900 -30.976930 1.346444 112.863900 -65.843200 38.751760 -4.562073 -8.459839 18.256470 165.204500 3.280807 165.040100 41.978170 -86.125610 -19.325200 2.052608 1.705005 19.152030 161.787900 -2.494049 159.914700 39.240760 -88.411560 -16.635740 6.002530 4.395454 -5.204803 165.398200 -8.915314 161.187700 31.479560 -85.617860 1.680927 -0.199310 0.562928 2.615496 162.390800 -18.071170 167.211400 48.977490 -83.530580 -22.666810 -5.539795 0.809171 43.241950 
